# xmcd CD database file generated by libcdaudio 0.99.1
# 
# Track frame offsets:
#       150
#       17245
#       30672
#       48942
#       69240
#       79317
#       96462
#       112960
#       125287
#       136405
# 
# Disc length: 2132 seconds
# 
# Revision: 0
# Processed by: cddbd v1.4b41PL1 Copyright (c) Steve Scherf et al.
# Submitted via: libcdaudio 0.99.1
# 
DISCID=8008520a
DTITLE=Golden Delicious - Old School
DYEAR=1900
DGENRE=
TTITLE0=Hot Corn, Cold Corn
TTITLE1=Cletus...
TTITLE2=Darling Corey
TTITLE3=Hoodoo Bash
TTITLE4=White-Knuckle Breakdown
TTITLE5=Raven Maggie
TTITLE6=Low Down Dog
TTITLE7=Waltz Across Texas
TTITLE8=Monday Morning
TTITLE9=Truckin'
EXTD=DISC: 1\nUPC: 789507613929\nLABEL: Cavity Search\nENSORECORD: 13164
EXTD=1\n
EXTT0=PERFORMER: Golden Delicious\n
EXTT1=PERFORMER: Golden Delicious\n
EXTT2=PERFORMER: Golden Delicious\n
EXTT3=PERFORMER: Golden Delicious\n
EXTT4=PERFORMER: Golden Delicious\n
EXTT5=PERFORMER: Golden Delicious\n
EXTT6=PERFORMER: Golden Delicious\n
EXTT7=PERFORMER: Golden Delicious\n
EXTT8=PERFORMER: Golden Delicious\n
EXTT9=PERFORMER: Golden Delicious\n
PLAYORDER=
